<?xml version="1.0" standalone="no"?>
<!DOCTYPE svg PUBLIC "-//W3C//DTD SVG 20010904//EN"
 "http://www.w3.org/TR/2001/REC-SVG-20010904/DTD/svg10.dtd">
<svg version="1.0" xmlns="http://www.w3.org/2000/svg"
 width="2048.000000pt" height="2048.000000pt" viewBox="0 0 2048.000000 2048.000000"
 preserveAspectRatio="xMidYMid meet">

<g transform="translate(0.000000,2048.000000) scale(0.100000,-0.100000)"
fill="#000000" stroke="none">
<path d="M0 15800 c0 -2751 4 -4680 9 -4680 9 0 26 146 22 185 -1 11 12 128
29 260 16 132 30 252 30 267 0 15 6 33 14 40 7 8 16 34 19 59 12 113 29 229
41 284 8 33 19 93 26 133 7 39 17 72 22 72 4 0 8 13 8 29 0 17 16 91 35 165
19 75 35 151 35 170 0 19 7 41 15 50 8 8 15 21 15 29 0 36 74 303 86 313 8 6
14 19 14 29 0 9 9 47 21 84 35 112 39 127 39 149 0 12 8 30 19 41 10 10 24 43
31 72 7 30 18 64 26 76 8 12 14 36 14 52 0 16 4 33 10 36 5 3 10 17 10 30 0
13 8 32 19 42 10 10 24 43 31 73 7 30 18 65 26 77 8 12 14 31 14 43 0 11 9 29
20 40 11 11 20 28 20 38 0 10 6 26 14 37 7 11 16 34 20 50 4 17 13 44 21 60 7
17 19 51 26 78 7 26 17 47 21 47 4 0 14 17 23 38 9 20 23 50 31 65 8 16 14 36
14 46 0 9 9 27 20 39 11 12 20 26 20 31 0 5 11 30 24 55 14 25 27 59 31 76 4
16 17 40 31 52 13 13 24 31 24 41 0 11 6 31 14 45 8 15 24 48 35 75 12 26 25
47 29 47 10 0 62 113 62 133 0 8 11 26 25 41 14 15 25 30 25 33 0 3 13 27 28
52 16 25 32 59 36 76 4 16 18 40 32 53 13 14 24 33 24 43 0 11 4 19 8 19 5 0
20 21 33 48 13 26 29 52 35 57 6 6 21 32 35 58 13 27 34 60 46 73 13 14 23 30
23 35 0 6 13 29 28 52 16 23 31 50 35 60 4 9 13 17 21 17 8 0 17 14 21 31 4
17 13 33 21 36 8 3 14 14 14 24 0 10 4 19 8 19 5 0 15 12 23 28 16 30 25 44
52 73 9 10 17 24 17 29 0 6 5 10 10 10 6 0 10 9 10 20 0 11 5 20 10 20 6 0 10
5 10 10 0 6 14 24 30 40 17 16 30 34 30 40 0 6 9 20 20 32 11 12 20 28 20 35
0 7 5 13 10 13 6 0 15 11 20 25 5 14 13 25 18 25 4 0 16 14 25 30 10 17 25 30
33 30 8 0 14 8 14 18 1 20 23 52 36 52 5 0 15 15 23 33 7 17 26 43 41 57 15
14 42 49 59 78 18 28 38 52 45 52 7 0 20 16 29 35 9 19 21 35 27 35 5 0 10 6
10 14 0 8 16 26 35 42 19 15 35 33 35 41 0 7 20 32 44 57 24 24 56 62 71 85
15 22 33 41 41 41 7 0 22 16 34 35 12 19 25 35 30 35 4 0 13 12 19 28 6 15 25
35 41 44 17 9 35 29 40 43 5 14 14 25 19 25 11 0 81 66 81 77 0 4 21 28 48 54
26 26 55 55 65 66 9 10 33 32 52 50 19 18 35 36 35 40 1 8 13 18 73 64 15 11
27 27 27 35 0 7 18 23 40 34 22 11 40 26 40 33 0 6 12 21 25 32 14 11 33 27
43 36 9 9 29 24 45 34 15 9 27 25 27 35 0 10 12 23 28 29 15 6 41 27 57 46 15
19 33 35 39 35 6 0 22 14 36 30 14 17 31 30 38 30 7 0 16 8 19 18 8 20 43 51
59 52 7 0 14 9 17 20 3 11 12 20 21 20 9 0 35 18 56 39 22 22 50 41 63 43 14
2 23 11 25 25 2 14 16 28 41 39 20 9 46 29 57 45 10 16 25 29 32 29 7 0 15 7
18 15 4 8 14 15 24 15 18 0 70 43 70 58 0 6 18 17 40 26 22 9 40 22 40 30 0 9
14 18 36 22 23 4 38 14 44 28 4 12 25 31 46 41 22 11 49 30 61 43 12 12 27 22
32 22 6 0 14 6 18 14 4 8 27 24 51 36 23 12 46 27 50 34 4 6 24 20 45 31 20
11 37 23 37 27 0 5 9 8 20 8 11 0 20 4 20 9 0 5 11 12 24 15 13 3 26 15 29 25
3 12 19 23 43 30 22 6 45 20 52 31 7 11 21 20 31 20 29 0 51 11 51 25 0 18 34
45 58 45 22 0 62 32 62 50 0 6 13 10 29 10 16 0 31 6 34 14 3 8 22 19 41 26
20 6 36 16 36 21 0 5 9 9 20 9 10 0 23 6 27 13 10 15 32 29 115 69 38 18 68
38 68 43 0 6 17 17 38 24 55 18 146 63 154 76 4 6 39 24 77 40 39 15 79 36 90
46 18 17 62 37 160 74 19 7 40 20 46 28 6 8 27 18 48 22 20 4 41 13 48 21 6 8
19 14 28 14 9 0 34 9 56 20 22 11 45 20 52 20 7 0 13 4 13 8 0 8 41 27 103 48
21 6 43 16 50 22 7 5 25 12 40 16 16 4 38 15 49 26 12 11 41 22 65 26 24 3 45
10 48 14 3 5 24 11 46 15 23 4 49 15 59 25 10 10 54 28 97 40 43 12 87 28 99
35 12 8 39 17 60 21 21 4 44 13 49 20 6 7 33 17 60 22 28 6 64 15 80 20 87 30
132 42 153 42 12 0 22 6 22 14 0 10 16 17 47 22 26 4 62 13 80 20 18 8 45 14
61 14 15 0 33 5 40 12 6 6 37 15 69 19 32 4 59 13 61 18 2 6 18 11 36 11 18 0
37 5 44 12 6 6 33 15 59 19 101 15 129 21 160 35 17 8 47 14 66 14 20 0 37 5
39 12 2 6 26 14 54 19 27 4 78 13 114 19 70 12 133 23 219 38 29 5 56 14 60
19 3 6 53 15 111 21 58 7 130 17 160 23 52 11 76 13 210 24 30 3 84 9 120 15
36 5 84 10 108 10 23 0 42 4 42 8 0 8 87 16 385 39 88 7 263 14 402 16 67 2
125 6 129 10 4 4 -2252 7 -5014 7 l-5022 0 0 -4680z"/>
</g>
</svg>
