<?xml version="1.0" encoding="UTF-8"?>
<!DOCTYPE svg PUBLIC "-//W3C//DTD SVG 1.1//EN" "http://www.w3.org/Graphics/SVG/1.1/DTD/svg11.dtd">
<svg xmlns="http://www.w3.org/2000/svg" version="1.1" width="2000px" height="1282px" style="shape-rendering:geometricPrecision; text-rendering:geometricPrecision; image-rendering:optimizeQuality; fill-rule:evenodd; clip-rule:evenodd" xmlns:xlink="http://www.w3.org/1999/xlink">
<g><path style="opacity:0.972" fill="#00a9c2" d="M 1761.5,896.5 C 1754.49,898.509 1748.49,902.176 1743.5,907.5C 1741.33,905.5 1739,903.666 1736.5,902C 1734.45,901.51 1732.45,901.677 1730.5,902.5C 1737.43,892.635 1746.93,888.969 1759,891.5C 1760.88,892.619 1761.71,894.286 1761.5,896.5 Z"/></g>
<g><path style="opacity:0.992" fill="#01aac2" d="M 1878.5,951.5 C 1874.81,958.808 1875.14,966.141 1879.5,973.5C 1879.17,973.833 1878.83,974.167 1878.5,974.5C 1871.67,971.697 1865,971.863 1858.5,975C 1854.49,979.547 1853.49,984.713 1855.5,990.5C 1847.15,985.823 1838.15,982.823 1828.5,981.5C 1828.5,980.833 1828.17,980.5 1827.5,980.5C 1815.21,978.757 1803.21,976.091 1791.5,972.5C 1783.94,960.939 1775.27,950.272 1765.5,940.5C 1761.86,934.205 1757.86,928.205 1753.5,922.5C 1753.57,920.973 1752.91,919.973 1751.5,919.5C 1748.91,915.974 1746.57,912.308 1744.5,908.5C 1750.14,904.206 1755.8,900.206 1761.5,896.5C 1763.82,895.84 1766.15,895.173 1768.5,894.5C 1769.44,894.608 1770.28,894.941 1771,895.5C 1771.48,897.913 1771.15,900.246 1770,902.5C 1767.48,905.038 1765.98,907.705 1765.5,910.5C 1784.32,896.544 1805.32,891.211 1828.5,894.5C 1828.36,897.617 1827.02,900.117 1824.5,902C 1821.63,903.935 1818.63,905.601 1815.5,907C 1823.91,905.655 1832.41,904.488 1841,903.5C 1850.51,904.332 1859.34,907.165 1867.5,912C 1870.03,914.747 1870.03,917.413 1867.5,920C 1862.31,923.04 1856.64,924.707 1850.5,925C 1856.22,926.21 1861.89,927.543 1867.5,929C 1869.58,930.884 1869.91,933.051 1868.5,935.5C 1865.29,936.215 1862.29,937.382 1859.5,939C 1866.55,942.184 1872.88,946.351 1878.5,951.5 Z"/></g>
<g><path style="opacity:1" fill="#037991" d="M 1761.5,896.5 C 1755.8,900.206 1750.14,904.206 1744.5,908.5C 1743.83,908.5 1743.5,908.167 1743.5,907.5C 1748.49,902.176 1754.49,898.509 1761.5,896.5 Z"/></g>
<g><path style="opacity:0.988" fill="#02aac2" d="M 1723.5,909.5 C 1721.98,912.725 1720.65,916.058 1719.5,919.5C 1709.67,929.803 1706.17,942.137 1709,956.5C 1709.83,961.994 1711.99,966.828 1715.5,971C 1716.17,971.667 1716.83,971.667 1717.5,971C 1711.76,964.277 1709.09,956.444 1709.5,947.5C 1709.37,938.198 1712.37,930.198 1718.5,923.5C 1716.54,931.818 1717.37,939.818 1721,947.5C 1726.1,956.099 1733.27,962.432 1742.5,966.5C 1729.15,969.01 1717.15,974.51 1706.5,983C 1705.55,983.483 1704.55,983.649 1703.5,983.5C 1698.45,980.72 1694.79,976.72 1692.5,971.5C 1691.42,966.023 1690.42,960.523 1689.5,955C 1690.59,946.913 1692.59,939.079 1695.5,931.5C 1696.34,930.329 1697.01,928.995 1697.5,927.5C 1701.44,918.456 1706.78,910.289 1713.5,903C 1715.01,902.15 1716.51,901.317 1718,900.5C 1720.96,903.063 1722.29,906.397 1722,910.5C 1722.38,909.944 1722.88,909.611 1723.5,909.5 Z"/></g>
<g><path style="opacity:1" fill="#65155d" d="M 1743.5,907.5 C 1743.5,908.167 1743.83,908.5 1744.5,908.5C 1746.57,912.308 1748.91,915.974 1751.5,919.5C 1741.62,913.868 1735.12,916.534 1732,927.5C 1731.18,930.554 1731.35,933.554 1732.5,936.5C 1733.32,933.215 1733.82,929.882 1734,926.5C 1734.69,921.808 1737.36,919.142 1742,918.5C 1746.19,919 1750.02,920.333 1753.5,922.5C 1757.86,928.205 1761.86,934.205 1765.5,940.5C 1766.87,953.176 1771.2,964.676 1778.5,975C 1773.82,974.928 1769.15,974.428 1764.5,973.5C 1756.84,972.392 1749.51,970.059 1742.5,966.5C 1733.27,962.432 1726.1,956.099 1721,947.5C 1717.37,939.818 1716.54,931.818 1718.5,923.5C 1719.43,922.432 1719.77,921.099 1719.5,919.5C 1720.65,916.058 1721.98,912.725 1723.5,909.5C 1725.18,906.423 1727.52,904.09 1730.5,902.5C 1732.45,901.677 1734.45,901.51 1736.5,902C 1739,903.666 1741.33,905.5 1743.5,907.5 Z"/></g>
<g><path style="opacity:0.989" fill="#64155d" d="M 1690.5,919.5 C 1692.56,923.35 1694.23,927.35 1695.5,931.5C 1692.59,939.079 1690.59,946.913 1689.5,955C 1690.42,960.523 1691.42,966.023 1692.5,971.5C 1677.81,962.41 1670.81,949.077 1671.5,931.5C 1671.01,923.452 1673.01,916.119 1677.5,909.5C 1679.07,908.369 1680.74,908.202 1682.5,909C 1686.03,911.931 1688.7,915.431 1690.5,919.5 Z"/></g>
<g><path style="opacity:1" fill="#481043" d="M 1751.5,919.5 C 1752.91,919.973 1753.57,920.973 1753.5,922.5C 1750.02,920.333 1746.19,919 1742,918.5C 1737.36,919.142 1734.69,921.808 1734,926.5C 1733.82,929.882 1733.32,933.215 1732.5,936.5C 1731.35,933.554 1731.18,930.554 1732,927.5C 1735.12,916.534 1741.62,913.868 1751.5,919.5 Z"/></g>
<g><path style="opacity:0.852" fill="#edcde6" d="M 1690.5,919.5 C 1692.83,922.167 1695.17,924.833 1697.5,927.5C 1697.01,928.995 1696.34,930.329 1695.5,931.5C 1694.23,927.35 1692.56,923.35 1690.5,919.5 Z"/></g>
<g><path style="opacity:1" fill="#04778f" d="M 1719.5,919.5 C 1719.77,921.099 1719.43,922.432 1718.5,923.5C 1712.37,930.198 1709.37,938.198 1709.5,947.5C 1709.09,956.444 1711.76,964.277 1717.5,971C 1716.83,971.667 1716.17,971.667 1715.5,971C 1711.99,966.828 1709.83,961.994 1709,956.5C 1706.17,942.137 1709.67,929.803 1719.5,919.5 Z"/></g>
<g><path style="opacity:1" fill="#fbdff3" d="M 1765.5,940.5 C 1775.27,950.272 1783.94,960.939 1791.5,972.5C 1791.34,974.527 1791.5,976.527 1792,978.5C 1806.26,988.429 1819.26,999.762 1831,1012.5C 1833.69,1015.89 1835.86,1019.56 1837.5,1023.5C 1834.15,1023.33 1830.82,1023.5 1827.5,1024C 1825.74,1025.01 1824.57,1026.51 1824,1028.5C 1821.07,1045.03 1825.57,1058.86 1837.5,1070C 1839.04,1071.19 1840.71,1071.52 1842.5,1071C 1837.07,1065.47 1834.07,1058.8 1833.5,1051C 1833.68,1049.34 1834.34,1048.01 1835.5,1047C 1838.82,1046.5 1842.15,1046.33 1845.5,1046.5C 1846.42,1048.75 1847.75,1050.75 1849.5,1052.5C 1847.98,1058.78 1848.32,1064.95 1850.5,1071C 1845.55,1071.32 1841.05,1072.82 1837,1075.5C 1834.55,1080.17 1835.72,1082.17 1840.5,1081.5C 1839.05,1082.85 1838.38,1084.52 1838.5,1086.5C 1843.6,1085.78 1847.6,1083.28 1850.5,1079C 1852.67,1078.12 1854.34,1078.62 1855.5,1080.5C 1855.58,1083.51 1856.91,1085.51 1859.5,1086.5C 1860.75,1089.78 1860.75,1093.11 1859.5,1096.5C 1868.75,1117.5 1874.25,1139.5 1876,1162.5C 1877.32,1157.65 1879.82,1153.65 1883.5,1150.5C 1890.75,1148.91 1898.08,1147.57 1905.5,1146.5C 1905.16,1154.27 1904.16,1161.94 1902.5,1169.5C 1891.26,1168.62 1882.26,1172.45 1875.5,1181C 1874.69,1184.79 1874.36,1188.63 1874.5,1192.5C 1874.34,1194.53 1874.5,1196.53 1875,1198.5C 1877.94,1204.05 1880.61,1209.71 1883,1215.5C 1886.05,1232.04 1881.05,1245.38 1868,1255.5C 1867.72,1248.39 1866.72,1241.39 1865,1234.5C 1863.76,1231.02 1861.76,1228.02 1859,1225.5C 1861.54,1230.08 1863.54,1235.08 1865,1240.5C 1865.67,1246.17 1865.67,1251.83 1865,1257.5C 1860.36,1260.96 1855.2,1263.29 1849.5,1264.5C 1848.45,1264.65 1847.45,1264.48 1846.5,1264C 1841.16,1257.48 1834.83,1252.32 1827.5,1248.5C 1820.17,1243.16 1813.17,1237.49 1806.5,1231.5C 1805.14,1229.15 1803.81,1226.82 1802.5,1224.5C 1801.1,1218.57 1799.94,1212.57 1799,1206.5C 1804.37,1177.29 1796.87,1152.12 1776.5,1131C 1765.41,1124.73 1755.75,1116.89 1747.5,1107.5C 1755.42,1097.99 1763.08,1088.32 1770.5,1078.5C 1761.1,1086.91 1753.1,1096.57 1746.5,1107.5C 1740.45,1111.49 1734.45,1111.49 1728.5,1107.5C 1745.26,1105.45 1755.26,1096.11 1758.5,1079.5C 1761.14,1069.07 1761.14,1058.73 1758.5,1048.5C 1756.97,1037.41 1752.64,1027.57 1745.5,1019C 1743.96,1017.81 1742.29,1017.48 1740.5,1018C 1738.92,1020.97 1737.25,1023.8 1735.5,1026.5C 1735.5,1024.17 1735.5,1021.83 1735.5,1019.5C 1732.71,1019.45 1730.87,1020.79 1730,1023.5C 1728.73,1027.4 1728.23,1031.4 1728.5,1035.5C 1727.17,1036.17 1725.83,1036.83 1724.5,1037.5C 1725.46,1033.2 1725.63,1028.87 1725,1024.5C 1723.12,1022.3 1720.96,1022.14 1718.5,1024C 1714.68,1028.46 1712.68,1033.63 1712.5,1039.5C 1711.17,1039.5 1709.83,1039.5 1708.5,1039.5C 1711.01,1034.14 1711.01,1028.81 1708.5,1023.5C 1703.89,1022.31 1699.89,1023.48 1696.5,1027C 1693,1030.18 1690.66,1034.02 1689.5,1038.5C 1688.5,1038.5 1687.5,1038.5 1686.5,1038.5C 1686.69,1036.44 1687.19,1034.44 1688,1032.5C 1690.36,1029.78 1692.19,1026.78 1693.5,1023.5C 1694.86,1021.18 1696.86,1019.51 1699.5,1018.5C 1701.13,1019.92 1701.63,1019.59 1701,1017.5C 1700.33,1016.75 1699.5,1016.41 1698.5,1016.5C 1698.86,1013.44 1698.02,1010.77 1696,1008.5C 1693.27,1007.55 1690.77,1006.22 1688.5,1004.5C 1686.37,1000.43 1685.03,996.095 1684.5,991.5C 1688.18,991.665 1691.85,991.499 1695.5,991C 1698.43,988.715 1701.1,986.215 1703.5,983.5C 1704.55,983.649 1705.55,983.483 1706.5,983C 1717.15,974.51 1729.15,969.01 1742.5,966.5C 1749.51,970.059 1756.84,972.392 1764.5,973.5C 1769.15,974.428 1773.82,974.928 1778.5,975C 1771.2,964.676 1766.87,953.176 1765.5,940.5 Z"/></g>
<g><path style="opacity:1" fill="#00d1aa" d="M 1853.5,948.5 C 1867.19,948.201 1873.35,954.868 1872,968.5C 1867.24,966.537 1862.4,964.704 1857.5,963C 1851.53,959.235 1850.19,954.401 1853.5,948.5 Z"/></g>
<g><path style="opacity:1" fill="#037890" d="M 1821.5,951.5 C 1826.3,950.283 1830.13,951.95 1833,956.5C 1833.34,958.818 1832.84,960.985 1831.5,963C 1830.83,963.667 1830.17,963.667 1829.5,963C 1832.7,958.471 1831.7,955.138 1826.5,953C 1824.98,951.991 1823.31,951.491 1821.5,951.5 Z"/></g>
<g><path style="opacity:0.993" fill="#04d2aa" d="M 1878.5,951.5 C 1900.66,968.522 1908.83,990.855 1903,1018.5C 1899.04,1029.74 1894.54,1040.74 1889.5,1051.5C 1883.43,1061.3 1877.09,1070.97 1870.5,1080.5C 1870.5,1079.83 1870.5,1079.17 1870.5,1078.5C 1875.73,1068.06 1875.73,1057.56 1870.5,1047C 1871.06,1046.62 1871.39,1046.12 1871.5,1045.5C 1872.16,1042.54 1872.49,1039.54 1872.5,1036.5C 1869.53,1036.75 1868.2,1038.41 1868.5,1041.5C 1867.92,1047.41 1864.58,1050.07 1858.5,1049.5C 1854.23,1048.3 1849.9,1047.3 1845.5,1046.5C 1842.15,1046.33 1838.82,1046.5 1835.5,1047C 1834.34,1048.01 1833.68,1049.34 1833.5,1051C 1834.07,1058.8 1837.07,1065.47 1842.5,1071C 1840.71,1071.52 1839.04,1071.19 1837.5,1070C 1825.57,1058.86 1821.07,1045.03 1824,1028.5C 1824.57,1026.51 1825.74,1025.01 1827.5,1024C 1830.82,1023.5 1834.15,1023.33 1837.5,1023.5C 1845.93,1026.3 1854.6,1027.13 1863.5,1026C 1866.14,1024.53 1867.81,1022.36 1868.5,1019.5C 1872.11,1014.45 1872.28,1009.12 1869,1003.5C 1865.8,997.68 1861.3,993.347 1855.5,990.5C 1853.49,984.713 1854.49,979.547 1858.5,975C 1865,971.863 1871.67,971.697 1878.5,974.5C 1878.83,974.167 1879.17,973.833 1879.5,973.5C 1875.14,966.141 1874.81,958.808 1878.5,951.5 Z"/></g>
<g><path style="opacity:1" fill="#037890" d="M 1812.5,951.5 C 1813.55,951.351 1814.55,951.517 1815.5,952C 1814.28,953.74 1812.62,954.74 1810.5,955C 1812,956.5 1813.5,958 1815,959.5C 1815.67,961.5 1815.67,963.5 1815,965.5C 1810.24,967.141 1805.74,966.641 1801.5,964C 1805.7,964.653 1809.87,964.486 1814,963.5C 1814.49,962.451 1814.33,961.451 1813.5,960.5C 1811.8,959.636 1810.64,958.303 1810,956.5C 1808.93,955.809 1807.77,955.309 1806.5,955C 1808.91,954.4 1810.91,953.234 1812.5,951.5 Z"/></g>
<g><path style="opacity:1" fill="#f3c0f9" d="M 1764.5,973.5 C 1765.58,974.594 1766.25,975.927 1766.5,977.5C 1765.48,981.338 1763.82,984.838 1761.5,988C 1764.76,987.518 1768.09,987.518 1771.5,988C 1772.55,989.388 1772.72,990.888 1772,992.5C 1767.4,997.836 1761.56,1001.34 1754.5,1003C 1752.93,1003.76 1751.6,1003.6 1750.5,1002.5C 1753.66,1000.92 1756.99,999.92 1760.5,999.5C 1760.5,998.5 1760.5,997.5 1760.5,996.5C 1760.27,992.707 1758.94,989.374 1756.5,986.5C 1756.67,985.178 1756.34,984.011 1755.5,983C 1753.61,982.22 1751.95,982.387 1750.5,983.5C 1749.5,983.833 1748.83,984.5 1748.5,985.5C 1744.53,989.138 1740.53,992.805 1736.5,996.5C 1733.02,998.978 1733.02,1001.64 1736.5,1004.5C 1736.57,1006.41 1737.57,1007.58 1739.5,1008C 1737.67,1009.17 1735.83,1010.33 1734,1011.5C 1731.12,1008.81 1728.62,1005.81 1726.5,1002.5C 1734.6,995.448 1742.27,987.948 1749.5,980C 1753.85,976.382 1758.85,974.215 1764.5,973.5 Z"/></g>
<g><path style="opacity:0.994" fill="#f4c0f9" d="M 1791.5,972.5 C 1803.21,976.091 1815.21,978.757 1827.5,980.5C 1828.17,980.5 1828.5,980.833 1828.5,981.5C 1842.67,993.259 1856.01,1005.93 1868.5,1019.5C 1867.81,1022.36 1866.14,1024.53 1863.5,1026C 1854.6,1027.13 1845.93,1026.3 1837.5,1023.5C 1835.86,1019.56 1833.69,1015.89 1831,1012.5C 1819.26,999.762 1806.26,988.429 1792,978.5C 1791.5,976.527 1791.34,974.527 1791.5,972.5 Z"/></g>
<g><path style="opacity:1" fill="#141416" d="M 1750.5,983.5 C 1751.95,982.387 1753.61,982.22 1755.5,983C 1756.34,984.011 1756.67,985.178 1756.5,986.5C 1754.78,984.975 1752.78,983.975 1750.5,983.5 Z"/></g>
<g><path style="opacity:1" fill="#37f2cf" d="M 1750.5,983.5 C 1752.78,983.975 1754.78,984.975 1756.5,986.5C 1758.94,989.374 1760.27,992.707 1760.5,996.5C 1757.78,994.752 1755.11,993.086 1752.5,991.5C 1751.94,988.95 1750.61,986.95 1748.5,985.5C 1748.83,984.5 1749.5,983.833 1750.5,983.5 Z"/></g>
<g><path style="opacity:1" fill="#13acc4" d="M 1748.5,985.5 C 1750.61,986.95 1751.94,988.95 1752.5,991.5C 1751.57,992.568 1751.23,993.901 1751.5,995.5C 1750.83,995.5 1750.5,995.167 1750.5,994.5C 1750.28,991.924 1748.94,991.09 1746.5,992C 1742.64,993.226 1740.31,995.726 1739.5,999.5C 1739.97,1002.3 1741.63,1003.63 1744.5,1003.5C 1742.65,1004.57 1740.65,1004.57 1738.5,1003.5C 1737.54,1001.25 1736.88,998.921 1736.5,996.5C 1740.53,992.805 1744.53,989.138 1748.5,985.5 Z"/></g>
<g><path style="opacity:1" fill="#fcfefe" d="M 1752.5,991.5 C 1755.11,993.086 1757.78,994.752 1760.5,996.5C 1760.5,997.5 1760.5,998.5 1760.5,999.5C 1756.99,999.92 1753.66,1000.92 1750.5,1002.5C 1751.91,1001.09 1752.91,999.423 1753.5,997.5C 1753.25,996.287 1752.59,995.62 1751.5,995.5C 1751.23,993.901 1751.57,992.568 1752.5,991.5 Z"/></g>
<g><path style="opacity:1" fill="#04768d" d="M 1750.5,994.5 C 1747.47,997.515 1743.8,999.182 1739.5,999.5C 1740.31,995.726 1742.64,993.226 1746.5,992C 1748.94,991.09 1750.28,991.924 1750.5,994.5 Z"/></g>
<g><path style="opacity:1" fill="#0bd1ab" d="M 1750.5,994.5 C 1750.5,995.167 1750.83,995.5 1751.5,995.5C 1751.6,998.108 1750.93,1000.44 1749.5,1002.5C 1747.96,1003.3 1746.29,1003.63 1744.5,1003.5C 1741.63,1003.63 1739.97,1002.3 1739.5,999.5C 1743.8,999.182 1747.47,997.515 1750.5,994.5 Z"/></g>
<g><path style="opacity:1" fill="#22b1c6" d="M 1751.5,995.5 C 1752.59,995.62 1753.25,996.287 1753.5,997.5C 1752.91,999.423 1751.91,1001.09 1750.5,1002.5C 1750.17,1002.5 1749.83,1002.5 1749.5,1002.5C 1750.93,1000.44 1751.6,998.108 1751.5,995.5 Z"/></g>
<g><path style="opacity:1" fill="#41f3d1" d="M 1736.5,996.5 C 1736.88,998.921 1737.54,1001.25 1738.5,1003.5C 1737.83,1003.83 1737.17,1004.17 1736.5,1004.5C 1733.02,1001.64 1733.02,998.978 1736.5,996.5 Z"/></g>
<g><path style="opacity:1" fill="#8d3057" d="M 1718.5,997.5 C 1719.6,998.848 1720.6,1000.35 1721.5,1002C 1719.23,1001.68 1718.23,1000.18 1718.5,997.5 Z"/></g>
<g><path style="opacity:1" fill="#91375d" d="M 1726.5,1002.5 C 1723.37,1002.24 1722.2,1000.57 1723,997.5C 1724,999.323 1725.16,1000.99 1726.5,1002.5 Z"/></g>
<g><path style="opacity:0.993" fill="#f4bff9" d="M 1688.5,1004.5 C 1690.77,1006.22 1693.27,1007.55 1696,1008.5C 1698.02,1010.77 1698.86,1013.44 1698.5,1016.5C 1695.67,1018 1694,1020.33 1693.5,1023.5C 1692.19,1026.78 1690.36,1029.78 1688,1032.5C 1687.19,1034.44 1686.69,1036.44 1686.5,1038.5C 1679.26,1038.02 1672.26,1039.02 1665.5,1041.5C 1660.34,1043 1656.34,1046 1653.5,1050.5C 1648.51,1046.85 1643.85,1042.85 1639.5,1038.5C 1635.75,1032.34 1634.75,1025.67 1636.5,1018.5C 1642.63,1015.88 1648.97,1013.71 1655.5,1012C 1665.38,1009.59 1675.38,1007.76 1685.5,1006.5C 1687.03,1006.36 1688.03,1005.69 1688.5,1004.5 Z"/></g>
<g><path style="opacity:1" fill="#8e3159" d="M 1698.5,1016.5 C 1699.5,1016.41 1700.33,1016.75 1701,1017.5C 1701.63,1019.59 1701.13,1019.92 1699.5,1018.5C 1696.86,1019.51 1694.86,1021.18 1693.5,1023.5C 1694,1020.33 1695.67,1018 1698.5,1016.5 Z"/></g>
<g><path style="opacity:1" fill="#050505" d="M 1758.5,1048.5 C 1754.76,1042.26 1750.1,1036.76 1744.5,1032C 1740.73,1030.59 1737.06,1030.09 1733.5,1030.5C 1734.17,1029.17 1734.83,1027.83 1735.5,1026.5C 1737.25,1023.8 1738.92,1020.97 1740.5,1018C 1742.29,1017.48 1743.96,1017.81 1745.5,1019C 1752.64,1027.57 1756.97,1037.41 1758.5,1048.5 Z"/></g>
<g><path style="opacity:1" fill="#f3bff8" d="M 1735.5,1026.5 C 1734.83,1027.83 1734.17,1029.17 1733.5,1030.5C 1732.19,1032.47 1730.53,1034.14 1728.5,1035.5C 1728.23,1031.4 1728.73,1027.4 1730,1023.5C 1730.87,1020.79 1732.71,1019.45 1735.5,1019.5C 1735.5,1021.83 1735.5,1024.17 1735.5,1026.5 Z"/></g>
<g><path style="opacity:1" fill="#f4c0f9" d="M 1708.5,1039.5 C 1702.85,1038.97 1697.18,1038.63 1691.5,1038.5C 1690.83,1038.5 1690.17,1038.5 1689.5,1038.5C 1690.66,1034.02 1693,1030.18 1696.5,1027C 1699.89,1023.48 1703.89,1022.31 1708.5,1023.5C 1711.01,1028.81 1711.01,1034.14 1708.5,1039.5 Z"/></g>
<g><path style="opacity:1" fill="#f4c0f9" d="M 1724.5,1037.5 C 1722.17,1038.17 1719.83,1038.83 1717.5,1039.5C 1715.83,1039.5 1714.17,1039.5 1712.5,1039.5C 1712.68,1033.63 1714.68,1028.46 1718.5,1024C 1720.96,1022.14 1723.12,1022.3 1725,1024.5C 1725.63,1028.87 1725.46,1033.2 1724.5,1037.5 Z"/></g>
<g><path style="opacity:1" fill="#06aac1" d="M 1733.5,1030.5 C 1737.06,1030.09 1740.73,1030.59 1744.5,1032C 1750.1,1036.76 1754.76,1042.26 1758.5,1048.5C 1761.14,1058.73 1761.14,1069.07 1758.5,1079.5C 1757.25,1082.09 1755.58,1084.42 1753.5,1086.5C 1739.15,1083.24 1726.32,1076.91 1715,1067.5C 1714.68,1068.91 1715.02,1070.24 1716,1071.5C 1722.37,1081.29 1729.87,1089.96 1738.5,1097.5C 1736.11,1099.02 1733.44,1100.02 1730.5,1100.5C 1726.17,1100.5 1721.83,1100.5 1717.5,1100.5C 1711.98,1099.87 1706.98,1100.87 1702.5,1103.5C 1693.48,1110.35 1684.31,1117.02 1675,1123.5C 1670.05,1120.95 1669.22,1117.29 1672.5,1112.5C 1672.17,1112.17 1671.83,1111.83 1671.5,1111.5C 1667.97,1115.62 1664.63,1115.45 1661.5,1111C 1668.08,1097.04 1679.08,1091.54 1694.5,1094.5C 1699.17,1094.5 1703.83,1094.5 1708.5,1094.5C 1711.52,1094.66 1714.52,1094.5 1717.5,1094C 1718.42,1093.72 1719.08,1093.22 1719.5,1092.5C 1730.12,1090.62 1730.12,1088.45 1719.5,1086C 1709.58,1078.78 1704.91,1068.95 1705.5,1056.5C 1714.6,1065.43 1724.93,1072.59 1736.5,1078C 1737.83,1078.67 1739.17,1078.67 1740.5,1078C 1730.93,1067.21 1723.93,1054.88 1719.5,1041C 1719.16,1039.97 1718.5,1039.47 1717.5,1039.5C 1719.83,1038.83 1722.17,1038.17 1724.5,1037.5C 1725.83,1036.83 1727.17,1036.17 1728.5,1035.5C 1730.53,1034.14 1732.19,1032.47 1733.5,1030.5 Z"/></g>
<g><path style="opacity:1" fill="#133b44" d="M 1865.5,1030.5 C 1867.43,1030.23 1869.1,1030.73 1870.5,1032C 1867.35,1034.31 1864.35,1036.81 1861.5,1039.5C 1860.37,1037.93 1860.2,1036.26 1861,1034.5C 1862.4,1032.93 1863.9,1031.6 1865.5,1030.5 Z"/></g>
<g><path style="opacity:1" fill="#000201" d="M 1871.5,1045.5 C 1870.14,1044.41 1869.14,1043.08 1868.5,1041.5C 1868.2,1038.41 1869.53,1036.75 1872.5,1036.5C 1872.49,1039.54 1872.16,1042.54 1871.5,1045.5 Z"/></g>
<g><path style="opacity:0.956" fill="#fbdff4" d="M 1639.5,1038.5 C 1643.85,1042.85 1648.51,1046.85 1653.5,1050.5C 1652.83,1051.83 1652.17,1053.17 1651.5,1054.5C 1649.63,1055.76 1647.97,1055.42 1646.5,1053.5C 1643.59,1048.77 1641.26,1043.77 1639.5,1038.5 Z"/></g>
<g><path style="opacity:0.999" fill="#01d1aa" d="M 1691.5,1038.5 C 1697.18,1038.63 1702.85,1038.97 1708.5,1039.5C 1709.83,1039.5 1711.17,1039.5 1712.5,1039.5C 1714.17,1039.5 1715.83,1039.5 1717.5,1039.5C 1718.5,1039.47 1719.16,1039.97 1719.5,1041C 1723.93,1054.88 1730.93,1067.21 1740.5,1078C 1739.17,1078.67 1737.83,1078.67 1736.5,1078C 1724.93,1072.59 1714.6,1065.43 1705.5,1056.5C 1702.47,1053.14 1699.47,1049.81 1696.5,1046.5C 1696.5,1045.83 1696.17,1045.5 1695.5,1045.5C 1694.17,1043.17 1692.83,1040.83 1691.5,1038.5 Z"/></g>
<g><path style="opacity:1" fill="#047a8e" d="M 1848.5,1038.5 C 1853.83,1039.17 1853.83,1039.83 1848.5,1040.5C 1847.44,1043.59 1847.44,1042.93 1848.5,1038.5 Z"/></g>
<g><path style="opacity:0.992" fill="#09cfa9" d="M 1665.5,1041.5 C 1666.68,1045.9 1668.01,1050.23 1669.5,1054.5C 1672.43,1064.62 1677.43,1073.62 1684.5,1081.5C 1684,1081.83 1683.5,1082.17 1683,1082.5C 1673.7,1076.1 1664.87,1069.1 1656.5,1061.5C 1654.59,1059.34 1652.92,1057.01 1651.5,1054.5C 1652.17,1053.17 1652.83,1051.83 1653.5,1050.5C 1656.34,1046 1660.34,1043 1665.5,1041.5 Z"/></g>
<g><path style="opacity:1" fill="#08abc2" d="M 1868.5,1041.5 C 1869.14,1043.08 1870.14,1044.41 1871.5,1045.5C 1871.39,1046.12 1871.06,1046.62 1870.5,1047C 1875.73,1057.56 1875.73,1068.06 1870.5,1078.5C 1868.62,1078.71 1867.28,1079.71 1866.5,1081.5C 1862.57,1082.99 1858.9,1082.65 1855.5,1080.5C 1854.34,1078.62 1852.67,1078.12 1850.5,1079C 1847.6,1083.28 1843.6,1085.78 1838.5,1086.5C 1838.38,1084.52 1839.05,1082.85 1840.5,1081.5C 1835.72,1082.17 1834.55,1080.17 1837,1075.5C 1841.05,1072.82 1845.55,1071.32 1850.5,1071C 1848.32,1064.95 1847.98,1058.78 1849.5,1052.5C 1854.55,1058.05 1860.39,1062.71 1867,1066.5C 1867.5,1066.33 1868,1066.17 1868.5,1066C 1864.09,1061.1 1860.75,1055.6 1858.5,1049.5C 1864.58,1050.07 1867.92,1047.41 1868.5,1041.5 Z"/></g>
<g><path style="opacity:0.996" fill="#882750" d="M 1475.5,1044.5 C 1452.29,1061.25 1443.46,1083.91 1449,1112.5C 1450.34,1121.05 1453.51,1128.71 1458.5,1135.5C 1450.48,1146.7 1440.48,1155.53 1428.5,1162C 1406.23,1167.69 1388.06,1161.52 1374,1143.5C 1364.74,1130.42 1364.24,1117.09 1372.5,1103.5C 1374.64,1101.1 1377.31,1099.76 1380.5,1099.5C 1385.76,1102.24 1390.93,1105.24 1396,1108.5C 1411.56,1080.27 1434.06,1059.77 1463.5,1047C 1467.49,1046.06 1471.49,1045.22 1475.5,1044.5 Z"/></g>
<g><path style="opacity:0.999" fill="#66145e" d="M 1475.5,1044.5 C 1490.31,1045.16 1503.98,1049.33 1516.5,1057C 1529.06,1065.22 1541.06,1074.22 1552.5,1084C 1555.87,1087.28 1558.87,1090.78 1561.5,1094.5C 1552.66,1096.91 1544.16,1100.24 1536,1104.5C 1527.91,1116.36 1522.24,1129.36 1519,1143.5C 1517.75,1151.81 1518.75,1159.81 1522,1167.5C 1530,1178.17 1538,1188.83 1546,1199.5C 1552.51,1210.78 1553.17,1222.44 1548,1234.5C 1542.51,1246.15 1536.51,1257.48 1530,1268.5C 1528.36,1272.71 1527.2,1277.04 1526.5,1281.5C 1518.5,1281.5 1510.5,1281.5 1502.5,1281.5C 1502.26,1266.55 1505.76,1252.55 1513,1239.5C 1519.89,1232.06 1524.39,1223.39 1526.5,1213.5C 1525.62,1207.08 1523.12,1201.42 1519,1196.5C 1510.37,1189.54 1502.04,1182.21 1494,1174.5C 1488.36,1163.39 1488.03,1152.06 1493,1140.5C 1494.66,1136.7 1496.49,1133.03 1498.5,1129.5C 1503.94,1125.24 1509.27,1120.74 1514.5,1116C 1499.12,1113.68 1484.79,1116.34 1471.5,1124C 1467.46,1128.34 1463.13,1132.17 1458.5,1135.5C 1453.51,1128.71 1450.34,1121.05 1449,1112.5C 1443.46,1083.91 1452.29,1061.25 1475.5,1044.5 Z"/></g>
<g><path style="opacity:0.998" fill="#872750" d="M 1695.5,1045.5 C 1696.17,1045.5 1696.5,1045.83 1696.5,1046.5C 1692.6,1056.1 1690.27,1066.1 1689.5,1076.5C 1689.56,1079.9 1690.06,1083.24 1691,1086.5C 1692.48,1089.11 1693.65,1091.78 1694.5,1094.5C 1679.08,1091.54 1668.08,1097.04 1661.5,1111C 1664.63,1115.45 1667.97,1115.62 1671.5,1111.5C 1671.83,1111.83 1672.17,1112.17 1672.5,1112.5C 1669.22,1117.29 1670.05,1120.95 1675,1123.5C 1684.31,1117.02 1693.48,1110.35 1702.5,1103.5C 1707.3,1109.14 1712.64,1114.3 1718.5,1119C 1736.17,1129.5 1753.5,1140.5 1770.5,1152C 1771.31,1153.11 1771.97,1154.28 1772.5,1155.5C 1764.65,1155.1 1756.99,1154.27 1749.5,1153C 1743.77,1154.7 1738.44,1157.2 1733.5,1160.5C 1722.24,1169.94 1710.57,1178.77 1698.5,1187C 1691.34,1190.28 1684.01,1192.95 1676.5,1195C 1670.49,1195.5 1664.49,1196 1658.5,1196.5C 1658.65,1193.39 1658.15,1190.39 1657,1187.5C 1636.52,1159.29 1626.02,1127.62 1625.5,1092.5C 1629.51,1084.65 1634.84,1077.82 1641.5,1072C 1646.57,1068.48 1651.57,1064.98 1656.5,1061.5C 1664.87,1069.1 1673.7,1076.1 1683,1082.5C 1683.5,1082.17 1684,1081.83 1684.5,1081.5C 1677.43,1073.62 1672.43,1064.62 1669.5,1054.5C 1678.22,1051.39 1686.89,1048.39 1695.5,1045.5 Z"/></g>
<g><path style="opacity:1" fill="#f2bff8" d="M 1696.5,1046.5 C 1699.47,1049.81 1702.47,1053.14 1705.5,1056.5C 1704.91,1068.95 1709.58,1078.78 1719.5,1086C 1730.12,1088.45 1730.12,1090.62 1719.5,1092.5C 1711.03,1088.52 1703.53,1083.19 1697,1076.5C 1696.33,1077.5 1696.33,1078.5 1697,1079.5C 1698.37,1081.37 1699.53,1083.37 1700.5,1085.5C 1703.58,1088.24 1706.25,1091.24 1708.5,1094.5C 1703.83,1094.5 1699.17,1094.5 1694.5,1094.5C 1693.65,1091.78 1692.48,1089.11 1691,1086.5C 1690.06,1083.24 1689.56,1079.9 1689.5,1076.5C 1690.27,1066.1 1692.6,1056.1 1696.5,1046.5 Z"/></g>
<g><path style="opacity:1" fill="#93395f" d="M 1770.5,1078.5 C 1774.05,1072.77 1778.21,1067.44 1783,1062.5C 1785.9,1053.41 1787.57,1044.07 1788,1034.5C 1790.83,1052.88 1785,1067.54 1770.5,1078.5 Z"/></g>
<g><path style="opacity:1" fill="#33f2cf" d="M 1845.5,1046.5 C 1849.9,1047.3 1854.23,1048.3 1858.5,1049.5C 1860.75,1055.6 1864.09,1061.1 1868.5,1066C 1868,1066.17 1867.5,1066.33 1867,1066.5C 1860.39,1062.71 1854.55,1058.05 1849.5,1052.5C 1847.75,1050.75 1846.42,1048.75 1845.5,1046.5 Z"/></g>
<g><path style="opacity:0.998" fill="#f4bff9" d="M 1889.5,1051.5 C 1902.25,1071.69 1905.59,1093.36 1899.5,1116.5C 1893.28,1127.09 1887.62,1138.09 1882.5,1149.5C 1882.62,1150.11 1882.96,1150.44 1883.5,1150.5C 1879.82,1153.65 1877.32,1157.65 1876,1162.5C 1874.25,1139.5 1868.75,1117.5 1859.5,1096.5C 1860.75,1093.11 1860.75,1089.78 1859.5,1086.5C 1864.61,1087.04 1868.28,1085.04 1870.5,1080.5C 1877.09,1070.97 1883.43,1061.3 1889.5,1051.5 Z"/></g>
<g><path style="opacity:1" fill="#00d0a9" d="M 1753.5,1086.5 C 1749.08,1090.92 1744.08,1094.58 1738.5,1097.5C 1729.87,1089.96 1722.37,1081.29 1716,1071.5C 1715.02,1070.24 1714.68,1068.91 1715,1067.5C 1726.32,1076.91 1739.15,1083.24 1753.5,1086.5 Z"/></g>
<g><path style="opacity:1" fill="#17d1ac" d="M 1719.5,1092.5 C 1719.08,1093.22 1718.42,1093.72 1717.5,1094C 1714.52,1094.5 1711.52,1094.66 1708.5,1094.5C 1706.25,1091.24 1703.58,1088.24 1700.5,1085.5C 1699.53,1083.37 1698.37,1081.37 1697,1079.5C 1696.33,1078.5 1696.33,1077.5 1697,1076.5C 1703.53,1083.19 1711.03,1088.52 1719.5,1092.5 Z"/></g>
<g><path style="opacity:1" fill="#080e0d" d="M 1870.5,1078.5 C 1870.5,1079.17 1870.5,1079.83 1870.5,1080.5C 1868.28,1085.04 1864.61,1087.04 1859.5,1086.5C 1856.91,1085.51 1855.58,1083.51 1855.5,1080.5C 1858.9,1082.65 1862.57,1082.99 1866.5,1081.5C 1867.28,1079.71 1868.62,1078.71 1870.5,1078.5 Z"/></g>
<g><path style="opacity:1" fill="#050707" d="M 1758.5,1079.5 C 1755.26,1096.11 1745.26,1105.45 1728.5,1107.5C 1724.75,1107.06 1721.75,1105.39 1719.5,1102.5C 1722.85,1102.67 1726.18,1102.5 1729.5,1102C 1730.06,1101.62 1730.39,1101.12 1730.5,1100.5C 1733.44,1100.02 1736.11,1099.02 1738.5,1097.5C 1744.08,1094.58 1749.08,1090.92 1753.5,1086.5C 1755.58,1084.42 1757.25,1082.09 1758.5,1079.5 Z"/></g>
<g><path style="opacity:1" fill="#90355b" d="M 1770.5,1078.5 C 1763.08,1088.32 1755.42,1097.99 1747.5,1107.5C 1747.17,1107.5 1746.83,1107.5 1746.5,1107.5C 1753.1,1096.57 1761.1,1086.91 1770.5,1078.5 Z"/></g>
<g><path style="opacity:0.995" fill="#00d1aa" d="M 1254.5,1176.5 C 1253.71,1198.41 1243.38,1213.58 1223.5,1222C 1210.12,1226.27 1196.46,1227.61 1182.5,1226C 1195.8,1238.34 1204.13,1253.51 1207.5,1271.5C 1207.11,1275.06 1206.11,1278.39 1204.5,1281.5C 1198.5,1281.5 1192.5,1281.5 1186.5,1281.5C 1150.39,1254.22 1116.73,1224.38 1085.5,1192C 1077.31,1185.31 1068.98,1178.81 1060.5,1172.5C 1030.85,1156.28 999.182,1145.62 965.5,1140.5C 956.52,1139.75 947.52,1139.25 938.5,1139C 932.378,1138.28 926.378,1136.94 920.5,1135C 909.879,1130.8 906.379,1123.3 910,1112.5C 914.258,1107.91 919.091,1104.07 924.5,1101C 951.93,1088.2 980.596,1084.87 1010.5,1091C 1025.17,1094 1039.5,1098 1053.5,1103C 1101.1,1122.14 1148.44,1141.8 1195.5,1162C 1209.14,1166.16 1222.8,1170.16 1236.5,1174C 1242.47,1175.09 1248.47,1175.92 1254.5,1176.5 Z"/></g>
<g><path style="opacity:1" fill="#fbdff3" d="M 1588.5,1091.5 C 1570.99,1105.58 1563.49,1123.91 1566,1146.5C 1568.11,1154.06 1571.78,1160.72 1577,1166.5C 1582,1171.17 1587,1175.83 1592,1180.5C 1609.33,1197.14 1611,1215.14 1597,1234.5C 1587.72,1244.78 1578.06,1254.78 1568,1264.5C 1563.02,1269.79 1558.52,1275.46 1554.5,1281.5C 1545.17,1281.5 1535.83,1281.5 1526.5,1281.5C 1527.2,1277.04 1528.36,1272.71 1530,1268.5C 1536.51,1257.48 1542.51,1246.15 1548,1234.5C 1553.17,1222.44 1552.51,1210.78 1546,1199.5C 1538,1188.83 1530,1178.17 1522,1167.5C 1518.75,1159.81 1517.75,1151.81 1519,1143.5C 1522.24,1129.36 1527.91,1116.36 1536,1104.5C 1544.16,1100.24 1552.66,1096.91 1561.5,1094.5C 1570.4,1092.76 1579.4,1091.76 1588.5,1091.5 Z"/></g>
<g><path style="opacity:1" fill="#66145e" d="M 1588.5,1091.5 C 1596.51,1091.33 1604.51,1091.5 1612.5,1092C 1616.52,1092.15 1620.36,1092.98 1624,1094.5C 1624.28,1093.58 1624.78,1092.92 1625.5,1092.5C 1626.02,1127.62 1636.52,1159.29 1657,1187.5C 1658.15,1190.39 1658.65,1193.39 1658.5,1196.5C 1664.49,1196 1670.49,1195.5 1676.5,1195C 1684.01,1192.95 1691.34,1190.28 1698.5,1187C 1710.57,1178.77 1722.24,1169.94 1733.5,1160.5C 1738.44,1157.2 1743.77,1154.7 1749.5,1153C 1756.99,1154.27 1764.65,1155.1 1772.5,1155.5C 1773.5,1155.41 1774.33,1155.75 1775,1156.5C 1780.92,1163.44 1784.42,1171.44 1785.5,1180.5C 1771.97,1170.14 1756.97,1167.64 1740.5,1173C 1731.38,1176.73 1722.38,1180.73 1713.5,1185C 1697.96,1195.44 1681.29,1203.77 1663.5,1210C 1658.9,1211.06 1654.23,1211.73 1649.5,1212C 1644.71,1219.08 1640.04,1226.25 1635.5,1233.5C 1635.71,1234.09 1636.04,1234.59 1636.5,1235C 1640.5,1235.67 1644.5,1235.67 1648.5,1235C 1653.43,1233.47 1658.43,1232.13 1663.5,1231C 1677.8,1223.34 1692.13,1215.67 1706.5,1208C 1722.28,1201.5 1738.62,1196.5 1755.5,1193C 1766.54,1191.48 1777.2,1192.65 1787.5,1196.5C 1787.35,1200.52 1787.02,1204.52 1786.5,1208.5C 1768.85,1205.19 1751.52,1206.35 1734.5,1212C 1721.8,1216.62 1709.47,1222.12 1697.5,1228.5C 1685.95,1236.09 1674.28,1243.59 1662.5,1251C 1652.43,1255.76 1641.77,1258.1 1630.5,1258C 1629,1265.91 1629.34,1273.74 1631.5,1281.5C 1605.83,1281.5 1580.17,1281.5 1554.5,1281.5C 1558.52,1275.46 1563.02,1269.79 1568,1264.5C 1578.06,1254.78 1587.72,1244.78 1597,1234.5C 1611,1215.14 1609.33,1197.14 1592,1180.5C 1587,1175.83 1582,1171.17 1577,1166.5C 1571.78,1160.72 1568.11,1154.06 1566,1146.5C 1563.49,1123.91 1570.99,1105.58 1588.5,1091.5 Z"/></g>
<g><path style="opacity:0.998" fill="#fbdff3" d="M 1380.5,1099.5 C 1377.31,1099.76 1374.64,1101.1 1372.5,1103.5C 1364.24,1117.09 1364.74,1130.42 1374,1143.5C 1388.06,1161.52 1406.23,1167.69 1428.5,1162C 1440.48,1155.53 1450.48,1146.7 1458.5,1135.5C 1463.13,1132.17 1467.46,1128.34 1471.5,1124C 1484.79,1116.34 1499.12,1113.68 1514.5,1116C 1509.27,1120.74 1503.94,1125.24 1498.5,1129.5C 1472.17,1152.59 1454.17,1181.25 1444.5,1215.5C 1441.17,1216.5 1437.83,1217.5 1434.5,1218.5C 1431.63,1218.07 1428.97,1217.07 1426.5,1215.5C 1425.35,1212.89 1425.18,1210.23 1426,1207.5C 1428.77,1202.4 1431.94,1197.56 1435.5,1193C 1409.23,1201.2 1388.23,1194.03 1372.5,1171.5C 1361.97,1150.06 1357.14,1127.39 1358,1103.5C 1360,1093.71 1365.5,1091.21 1374.5,1096C 1376.43,1097.46 1378.43,1098.63 1380.5,1099.5 Z"/></g>
<g><path style="opacity:1" fill="#f4bff9" d="M 1717.5,1100.5 C 1717.83,1101.5 1718.5,1102.17 1719.5,1102.5C 1721.75,1105.39 1724.75,1107.06 1728.5,1107.5C 1734.45,1111.49 1740.45,1111.49 1746.5,1107.5C 1746.83,1107.5 1747.17,1107.5 1747.5,1107.5C 1755.75,1116.89 1765.41,1124.73 1776.5,1131C 1796.87,1152.12 1804.37,1177.29 1799,1206.5C 1799.94,1212.57 1801.1,1218.57 1802.5,1224.5C 1797.75,1219.41 1792.41,1215.08 1786.5,1211.5C 1786.5,1210.5 1786.5,1209.5 1786.5,1208.5C 1787.02,1204.52 1787.35,1200.52 1787.5,1196.5C 1787.09,1191.09 1786.43,1185.76 1785.5,1180.5C 1784.42,1171.44 1780.92,1163.44 1775,1156.5C 1774.33,1155.75 1773.5,1155.41 1772.5,1155.5C 1771.97,1154.28 1771.31,1153.11 1770.5,1152C 1753.5,1140.5 1736.17,1129.5 1718.5,1119C 1712.64,1114.3 1707.3,1109.14 1702.5,1103.5C 1706.98,1100.87 1711.98,1099.87 1717.5,1100.5 Z"/></g>
<g><path style="opacity:1" fill="#02cda9" d="M 1717.5,1100.5 C 1721.83,1100.5 1726.17,1100.5 1730.5,1100.5C 1730.39,1101.12 1730.06,1101.62 1729.5,1102C 1726.18,1102.5 1722.85,1102.67 1719.5,1102.5C 1718.5,1102.17 1717.83,1101.5 1717.5,1100.5 Z"/></g>
<g><path style="opacity:0.99" fill="#67165f" d="M 1899.5,1116.5 C 1904.07,1125.9 1906.07,1135.9 1905.5,1146.5C 1898.08,1147.57 1890.75,1148.91 1883.5,1150.5C 1882.96,1150.44 1882.62,1150.11 1882.5,1149.5C 1887.62,1138.09 1893.28,1127.09 1899.5,1116.5 Z"/></g>
<g><path style="opacity:1" fill="#882750" d="M 1498.5,1129.5 C 1496.49,1133.03 1494.66,1136.7 1493,1140.5C 1488.03,1152.06 1488.36,1163.39 1494,1174.5C 1502.04,1182.21 1510.37,1189.54 1519,1196.5C 1523.12,1201.42 1525.62,1207.08 1526.5,1213.5C 1524.39,1223.39 1519.89,1232.06 1513,1239.5C 1505.76,1252.55 1502.26,1266.55 1502.5,1281.5C 1482.83,1281.5 1463.17,1281.5 1443.5,1281.5C 1439.24,1259.42 1439.57,1237.42 1444.5,1215.5C 1454.17,1181.25 1472.17,1152.59 1498.5,1129.5 Z"/></g>
<g><path style="opacity:1" fill="#047b8e" d="M 1084.5,1155.5 C 1087.2,1154.23 1089.86,1154.56 1092.5,1156.5C 1092.33,1156.83 1092.17,1157.17 1092,1157.5C 1089.7,1156.13 1087.2,1155.47 1084.5,1155.5 Z"/></g>
<g><path style="opacity:1" fill="#057b8e" d="M 1099.5,1155.5 C 1104.39,1154.66 1108.72,1156.16 1112.5,1160C 1108.31,1158.36 1103.97,1156.86 1099.5,1155.5 Z"/></g>
<g><path style="opacity:0.004" fill="#0000ff" d="M 1190.5,1157.5 C 1189.83,1156.17 1189.83,1156.17 1190.5,1157.5 Z"/></g>
<g><path style="opacity:1" fill="#047b8e" d="M 1084.5,1155.5 C 1082.53,1161.75 1084.2,1166.92 1089.5,1171C 1089,1171.17 1088.5,1171.33 1088,1171.5C 1084.88,1169.35 1082.88,1166.35 1082,1162.5C 1081.33,1160.5 1081.33,1158.5 1082,1156.5C 1082.67,1155.75 1083.5,1155.41 1084.5,1155.5 Z"/></g>
<g><path style="opacity:0.016" fill="#00807f" d="M 1190.5,1157.5 C 1191.83,1158.17 1191.83,1158.17 1190.5,1157.5 Z"/></g>
<g><path style="opacity:0.016" fill="#00807f" d="M 1192.5,1158.5 C 1193.83,1159.17 1193.83,1159.17 1192.5,1158.5 Z"/></g>
<g><path style="opacity:0.993" fill="#67155e" d="M 1902.5,1169.5 C 1900.79,1178.36 1898.45,1187.02 1895.5,1195.5C 1888.38,1195.16 1881.38,1194.16 1874.5,1192.5C 1874.36,1188.63 1874.69,1184.79 1875.5,1181C 1882.26,1172.45 1891.26,1168.62 1902.5,1169.5 Z"/></g>
<g><path style="opacity:1" fill="#fadef2" d="M 1785.5,1180.5 C 1786.43,1185.76 1787.09,1191.09 1787.5,1196.5C 1777.2,1192.65 1766.54,1191.48 1755.5,1193C 1738.62,1196.5 1722.28,1201.5 1706.5,1208C 1692.13,1215.67 1677.8,1223.34 1663.5,1231C 1658.43,1232.13 1653.43,1233.47 1648.5,1235C 1644.5,1235.67 1640.5,1235.67 1636.5,1235C 1636.04,1234.59 1635.71,1234.09 1635.5,1233.5C 1640.04,1226.25 1644.71,1219.08 1649.5,1212C 1654.23,1211.73 1658.9,1211.06 1663.5,1210C 1681.29,1203.77 1697.96,1195.44 1713.5,1185C 1722.38,1180.73 1731.38,1176.73 1740.5,1173C 1756.97,1167.64 1771.97,1170.14 1785.5,1180.5 Z"/></g>
<g><path style="opacity:0.999" fill="#00aac2" d="M 1372.5,1171.5 C 1388.23,1194.03 1409.23,1201.2 1435.5,1193C 1431.94,1197.56 1428.77,1202.4 1426,1207.5C 1425.18,1210.23 1425.35,1212.89 1426.5,1215.5C 1428.97,1217.07 1431.63,1218.07 1434.5,1218.5C 1437.83,1217.5 1441.17,1216.5 1444.5,1215.5C 1439.57,1237.42 1439.24,1259.42 1443.5,1281.5C 1363.83,1281.5 1284.17,1281.5 1204.5,1281.5C 1206.11,1278.39 1207.11,1275.06 1207.5,1271.5C 1204.13,1253.51 1195.8,1238.34 1182.5,1226C 1196.46,1227.61 1210.12,1226.27 1223.5,1222C 1243.38,1213.58 1253.71,1198.41 1254.5,1176.5C 1281.21,1180.34 1307.88,1180.84 1334.5,1178C 1347.26,1176.3 1359.93,1174.14 1372.5,1171.5 Z"/></g>
<g><path style="opacity:1" fill="#057b8e" d="M 1099.5,1155.5 C 1098.49,1157.4 1098.32,1159.4 1099,1161.5C 1101.12,1165.94 1103.62,1170.11 1106.5,1174C 1106.17,1174.5 1105.83,1175 1105.5,1175.5C 1101.87,1173.03 1097.87,1172.03 1093.5,1172.5C 1093.97,1179.45 1096.64,1185.45 1101.5,1190.5C 1101.33,1190.83 1101.17,1191.17 1101,1191.5C 1095.04,1186.43 1092.2,1180.09 1092.5,1172.5C 1093.74,1171.64 1095.07,1170.98 1096.5,1170.5C 1098.43,1171.52 1100.43,1171.69 1102.5,1171C 1098.68,1166.54 1096.68,1161.37 1096.5,1155.5C 1097.5,1155.5 1098.5,1155.5 1099.5,1155.5 Z"/></g>
<g><path style="opacity:0.997" fill="#882750" d="M 1874.5,1192.5 C 1881.38,1194.16 1888.38,1195.16 1895.5,1195.5C 1895.95,1196.46 1896.62,1197.29 1897.5,1198C 1920.98,1208.57 1942.31,1222.4 1961.5,1239.5C 1944.58,1239.81 1928.91,1244.31 1914.5,1253C 1905.18,1260.8 1898.18,1270.3 1893.5,1281.5C 1878.83,1281.5 1864.17,1281.5 1849.5,1281.5C 1852.31,1276.82 1851.97,1272.32 1848.5,1268C 1848.83,1267.83 1849.17,1267.67 1849.5,1267.5C 1853.5,1271.17 1857.5,1274.83 1861.5,1278.5C 1862.62,1279.83 1863.95,1280.33 1865.5,1280C 1859.94,1275.06 1854.61,1269.89 1849.5,1264.5C 1855.2,1263.29 1860.36,1260.96 1865,1257.5C 1865.67,1251.83 1865.67,1246.17 1865,1240.5C 1863.54,1235.08 1861.54,1230.08 1859,1225.5C 1861.76,1228.02 1863.76,1231.02 1865,1234.5C 1866.72,1241.39 1867.72,1248.39 1868,1255.5C 1881.05,1245.38 1886.05,1232.04 1883,1215.5C 1880.61,1209.71 1877.94,1204.05 1875,1198.5C 1874.5,1196.53 1874.34,1194.53 1874.5,1192.5 Z"/></g>
<g><path style="opacity:1" fill="#87264f" d="M 1786.5,1208.5 C 1786.5,1209.5 1786.5,1210.5 1786.5,1211.5C 1774.58,1209.12 1763.25,1210.79 1752.5,1216.5C 1746.36,1220.41 1740.03,1224.07 1733.5,1227.5C 1733.83,1226.34 1733.83,1225 1733.5,1223.5C 1732.02,1224.47 1731.02,1225.8 1730.5,1227.5C 1719.91,1235.09 1709.91,1243.42 1700.5,1252.5C 1689.85,1262.14 1679.19,1271.81 1668.5,1281.5C 1656.17,1281.5 1643.83,1281.5 1631.5,1281.5C 1629.34,1273.74 1629,1265.91 1630.5,1258C 1641.77,1258.1 1652.43,1255.76 1662.5,1251C 1674.28,1243.59 1685.95,1236.09 1697.5,1228.5C 1709.47,1222.12 1721.8,1216.62 1734.5,1212C 1751.52,1206.35 1768.85,1205.19 1786.5,1208.5 Z"/></g>
<g><path style="opacity:1" fill="#65145d" d="M 1786.5,1211.5 C 1792.41,1215.08 1797.75,1219.41 1802.5,1224.5C 1803.81,1226.82 1805.14,1229.15 1806.5,1231.5C 1803.31,1234.45 1799.65,1236.95 1795.5,1239C 1782.52,1242.44 1769.52,1245.77 1756.5,1249C 1742.53,1255.42 1734.19,1266.26 1731.5,1281.5C 1710.5,1281.5 1689.5,1281.5 1668.5,1281.5C 1679.19,1271.81 1689.85,1262.14 1700.5,1252.5C 1709.94,1245.57 1719.27,1238.41 1728.5,1231C 1729.31,1229.89 1729.97,1228.72 1730.5,1227.5C 1731.02,1225.8 1732.02,1224.47 1733.5,1223.5C 1733.83,1225 1733.83,1226.34 1733.5,1227.5C 1740.03,1224.07 1746.36,1220.41 1752.5,1216.5C 1763.25,1210.79 1774.58,1209.12 1786.5,1211.5 Z"/></g>
<g><path style="opacity:1" fill="#03778f" d="M 1349.5,1211.5 C 1352.85,1211.33 1356.18,1211.5 1359.5,1212C 1360.31,1212.31 1360.97,1212.81 1361.5,1213.5C 1357.59,1213.69 1353.59,1213.86 1349.5,1214C 1347.52,1214.48 1346.19,1215.65 1345.5,1217.5C 1348.97,1225.41 1354.97,1230.24 1363.5,1232C 1358.7,1232.38 1354.03,1233.38 1349.5,1235C 1347.37,1235.76 1346.03,1237.26 1345.5,1239.5C 1348.91,1248.42 1355.25,1253.92 1364.5,1256C 1358.81,1256.58 1353.98,1254.74 1350,1250.5C 1341.09,1240.74 1342.92,1234.24 1355.5,1231C 1349.88,1227.78 1345.88,1223.11 1343.5,1217C 1344.76,1214.24 1346.76,1212.4 1349.5,1211.5 Z"/></g>
<g><path style="opacity:1" fill="#00d1aa" d="M 1207.5,1231.5 C 1219.53,1230.42 1230.53,1233.26 1240.5,1240C 1246.69,1245.75 1247.02,1251.75 1241.5,1258C 1225.79,1258.68 1213.29,1252.51 1204,1239.5C 1203.69,1238.23 1203.19,1237.07 1202.5,1236C 1204.06,1234.26 1205.73,1232.76 1207.5,1231.5 Z"/></g>
<g><path style="opacity:1" fill="#037890" d="M 1333.5,1222.5 C 1335.53,1222.34 1337.53,1222.5 1339.5,1223C 1337.05,1223.29 1334.71,1223.96 1332.5,1225C 1330.97,1227.88 1331.64,1230.21 1334.5,1232C 1336.23,1233.73 1338.23,1235.06 1340.5,1236C 1336.44,1235.99 1333.27,1234.15 1331,1230.5C 1328.48,1226.56 1329.31,1223.9 1333.5,1222.5 Z"/></g>
<g><path style="opacity:1" fill="#fbdff3" d="M 1806.5,1231.5 C 1811.4,1239.73 1818.4,1245.4 1827.5,1248.5C 1820.64,1250.04 1813.64,1251.54 1806.5,1253C 1793.11,1257.87 1786.78,1267.37 1787.5,1281.5C 1768.83,1281.5 1750.17,1281.5 1731.5,1281.5C 1734.19,1266.26 1742.53,1255.42 1756.5,1249C 1769.52,1245.77 1782.52,1242.44 1795.5,1239C 1799.65,1236.95 1803.31,1234.45 1806.5,1231.5 Z"/></g>
<g><path style="opacity:1" fill="#4a1142" d="M 1730.5,1227.5 C 1729.97,1228.72 1729.31,1229.89 1728.5,1231C 1719.27,1238.41 1709.94,1245.57 1700.5,1252.5C 1709.91,1243.42 1719.91,1235.09 1730.5,1227.5 Z"/></g>
<g><path style="opacity:0.998" fill="#66145e" d="M 1961.5,1239.5 C 1972.13,1247.49 1981.47,1256.83 1989.5,1267.5C 1971.86,1268.32 1955.53,1272.99 1940.5,1281.5C 1924.83,1281.5 1909.17,1281.5 1893.5,1281.5C 1898.18,1270.3 1905.18,1260.8 1914.5,1253C 1928.91,1244.31 1944.58,1239.81 1961.5,1239.5 Z"/></g>
<g><path style="opacity:1" fill="#91365c" d="M 1806.5,1231.5 C 1813.17,1237.49 1820.17,1243.16 1827.5,1248.5C 1818.4,1245.4 1811.4,1239.73 1806.5,1231.5 Z"/></g>
<g><path style="opacity:1" fill="#66155d" d="M 1827.5,1248.5 C 1834.83,1252.32 1841.16,1257.48 1846.5,1264C 1847.45,1264.48 1848.45,1264.65 1849.5,1264.5C 1854.61,1269.89 1859.94,1275.06 1865.5,1280C 1863.95,1280.33 1862.62,1279.83 1861.5,1278.5C 1857.5,1274.83 1853.5,1271.17 1849.5,1267.5C 1849.17,1267.67 1848.83,1267.83 1848.5,1268C 1851.97,1272.32 1852.31,1276.82 1849.5,1281.5C 1828.83,1281.5 1808.17,1281.5 1787.5,1281.5C 1786.78,1267.37 1793.11,1257.87 1806.5,1253C 1813.64,1251.54 1820.64,1250.04 1827.5,1248.5 Z"/></g>
<g><path style="opacity:0.996" fill="#fbdef3" d="M 1989.5,1267.5 C 1993.08,1271.65 1996.41,1275.99 1999.5,1280.5C 1999.5,1280.83 1999.5,1281.17 1999.5,1281.5C 1979.83,1281.5 1960.17,1281.5 1940.5,1281.5C 1955.53,1272.99 1971.86,1268.32 1989.5,1267.5 Z"/></g>
</svg>
